<svg width="1536" height="1024" viewBox="0 0 1536 1024" fill="none" xmlns="http://www.w3.org/2000/svg">
<path d="M82.6056 441.422L82.9772 440.604C75.7146 434.856 72.3947 433.839 66.5185 424.892C21.4804 356.316 51.8683 252.733 145.074 248.966C174.911 247.761 205.92 259.894 235.975 258.872C284.758 254.454 330.552 223.56 381.537 243.824C401.087 251.504 416.623 266.594 424.603 285.652C426.67 290.507 429.063 297.827 430.019 302.987C442.947 303.056 449.319 303.554 460.902 310.055C479.084 303.831 491.985 305.461 507.904 316.187C512.557 310.675 516.033 306.666 521.848 302.288C560.544 273.149 624.046 285.496 633.343 337.1C634.148 341.573 634.885 345.911 635.549 350.364C664.672 337.597 688.421 341.824 712.535 361.335C740.584 346.204 772.694 344.472 798.108 366.025C806.801 358.962 813.241 356.181 824.098 353.333C823.473 290.646 858.844 248.808 924.75 248.984C953.204 249.059 977.705 259.994 1005.85 259.175C1029.49 258.225 1055.25 248.546 1077.94 242.494C1151.66 222.826 1210.03 258.988 1207.46 336.862C1207.13 346.652 1206.71 356.448 1204.73 366.343C1220.1 371.565 1229.02 375.302 1241.77 386.131C1254 359.543 1272.01 340.337 1300.33 330.586C1370.95 306.259 1450.96 336.491 1476.32 407.747C1490.87 448.608 1491.44 498.15 1472.49 537.802C1464.75 553.254 1462.41 555.425 1460.53 572.813C1469.55 577.748 1480.57 583.868 1483.05 594.616C1486.95 611.561 1488.33 643.418 1466.96 649.746C1456.6 652.813 1443.12 646.912 1432.8 651.925C1417.08 659.343 1417.68 682.593 1399.37 687.166C1383.38 691.161 1371.59 684.301 1363.89 670.715C1358.54 676.613 1354.33 680.991 1347.56 685.594C1317.2 706.253 1272.21 703.57 1244.62 679.517C1234.2 670.432 1229.06 659.981 1225.2 647.055C1178.8 664.746 1141.35 663.328 1101.24 632.876C1095.71 642.221 1091.22 649.396 1083.34 656.984C1038.91 699.782 953.446 691.675 928.923 631.39C926.866 626.334 925.156 621.299 923.404 616.175C907.59 679.964 843.701 715.871 779.054 700.435C753.458 694.55 731.145 679.297 716.712 657.817C693.806 669.882 669.797 674.474 644.33 667.023C629.431 662.557 616.103 654.114 605.849 642.645C578.79 668.39 537.796 672.25 506.669 651.025C492.57 664.299 478.926 668.23 459.61 668.461C442.085 668.671 424.468 659.847 407.868 659.449C373.221 658.618 359.164 670.588 325.52 653.119C312.953 670.883 288.221 679.59 267.47 683.372C211.628 693.549 160.704 666.705 150.683 609.775C150.476 608.597 150.343 607.612 150.24 606.414C146.689 605.799 141.508 604.861 137.988 605.015C113.671 606.083 117.16 569.343 97.695 564.466C93.0689 563.306 75.6929 563.527 69.658 563.31C68.9312 563.36 67.9092 563.442 67.1842 563.279C43.2447 557.927 47.5684 525.571 50.6475 507.885C52.7391 495.871 65.5431 492.146 75.0678 486.556C82.2391 473.524 74.1202 449.32 82.6056 441.422Z" fill="black"/>
<g clip-path="url(#clip0_94_2)">
<path d="M341.707 268.847C354.608 266.233 377.622 270.595 389.481 276.014C428.73 293.947 430.268 345.113 413.65 379.354C407.597 391.824 401.444 397.872 390.376 404.809C358.644 424.696 333.557 397.111 303.536 401.567C266.101 418.17 304.622 520.345 311.768 549.266C315.44 564.128 317.907 575.34 319.048 589.927C320.534 607.276 317.79 624.066 310.452 639.929C294.033 675.421 246.855 684.359 213.733 668.481C196.586 660.26 186.183 646.743 180.019 628.849C158.888 571.67 210.375 494.469 204.478 434.921C200.105 390.758 174.935 410.506 148.245 421.077C141.888 423.656 135.24 425.449 128.449 426.416C92.9933 431.19 69.8323 406.798 66.1367 372.865C63.6811 351.079 69.9565 329.207 83.5888 312.038C91.9042 301.584 102.761 293.438 115.122 288.378C160.18 269.943 202.147 297.248 248.752 291.417C282.874 287.148 307.233 272.65 341.707 268.847Z" fill="#FC88D1"/>
<path d="M1121.87 269.628C1133.26 267.902 1151.51 270.786 1162.06 275.197C1176.57 281.16 1188.05 292.756 1193.87 307.334C1201.89 327.26 1200.44 352.362 1191.84 371.919C1179.88 399.104 1155.35 413.034 1125.9 406.607C1111.41 403.443 1094.4 392.263 1079.52 398.21C1039.41 414.244 1087.37 541.941 1091.4 574.043C1093.77 592.989 1093.15 613.429 1085.63 631.224C1078.54 648.02 1065.09 660.683 1048.23 667.453C1029.51 674.975 1007.4 675.073 988.838 666.977C970.487 658.974 958.651 644.945 951.482 626.588C931.434 569.852 983.218 492.596 979.163 433.604C977.369 407.507 970.024 395.655 942.484 409.179C919.634 420.399 892.708 428.466 871.103 409.863C841.562 384.428 841.487 334.394 865.729 305.557C873.412 296.503 883.221 289.498 894.278 285.171C938.839 267.364 980.58 294.689 1026.45 290.681C1062.15 287.562 1086.98 272.509 1121.87 269.628Z" fill="#FC88D1"/>
<path d="M1343.43 353.666C1355.25 352.704 1371.88 355.28 1383.26 358.649C1411.41 366.981 1435.06 386.24 1448.92 412.128C1478.79 467.453 1467.09 564.374 1393.41 580.406C1379.56 583.419 1362.41 578.744 1348.99 574.563C1325.35 587.722 1341.66 613.643 1343.11 634.405C1343.85 644.913 1344.11 649.477 1341.31 659.733C1327.34 690.961 1284.68 698.631 1259.3 677.149C1232.63 654.572 1257.07 605.426 1264.4 577.527C1269.08 560.013 1271.69 542.009 1272.17 523.886C1272.29 517.533 1272.08 511.201 1271.64 504.862C1268.73 463.17 1244.39 416.568 1277.03 380.162C1294.64 360.52 1318.36 355.157 1343.43 353.666ZM1360.92 513.405C1381.42 503.731 1387.17 458.131 1360.5 456.835C1340.85 466.122 1333.4 512.293 1360.92 513.405Z" fill="#FC88D1"/>
<path d="M582.037 327.355C590.133 326.733 602.549 328.215 608.937 331.855C654.188 357.643 604.976 427.189 612.652 464.265C613.061 466.243 614.712 467.529 616.526 468.342C640.872 465.767 641.078 407.523 664.305 394.212C697.748 374.48 732.523 402.271 722.646 439.79C713.554 474.325 690.233 482.98 662.41 498.586C637.972 512.293 670.159 532.202 683.071 538.389C714.471 553.436 748.11 575.61 739.96 616.09C736.901 631.935 729.924 641.762 716.373 650.824C707.773 655.585 699.335 658.497 689.408 658.692C678.236 658.986 667.266 655.667 658.128 649.23C620.869 622.834 631.664 560.932 614.501 545.52C612.516 543.737 610.763 543.065 608.117 543.189C592.055 549.696 621.462 609.26 599.598 638.221C593.23 646.655 583.065 651.312 572.778 652.747C560.263 654.494 545.377 651.44 535.323 643.529C505.706 620.225 528.137 558.973 535.247 528.805C538.337 515.847 540.389 502.663 541.383 489.379C543.653 456.528 539.287 426.44 534.516 394.225C529.185 358.222 545.026 331.75 582.037 327.355Z" fill="#FC88D1"/>
<path d="M764.318 397.036C772.122 396.635 783.554 397.752 789.816 402.936C817.527 426.454 794.436 463.185 799.865 493.405C802.446 507.773 816.778 519.525 825.505 503.054C833.861 487.284 820.354 464.493 816.645 447.625C809.874 416.839 835.905 395.835 864.47 408.79C887.946 420.273 891.161 460.3 895.564 484.176C904.948 535.057 918.474 596.436 894.952 645.283C884.834 666.28 866.108 679.962 844.479 686.862C838.551 688.546 832.468 689.626 826.323 690.085C806.238 691.677 785.122 687.707 769.539 674.158C757.823 664.119 750.654 649.774 749.657 634.375C748.864 621.005 753.256 607.153 762.277 597.154C770.893 587.67 782.927 582.003 795.725 581.403C829.206 579.912 838.622 607.318 846.853 606.974C861.74 601.415 857.413 571.93 847.096 565.382C833.6 556.816 809.7 568.812 794.548 571.946C761.491 579.96 731.768 555.7 727.23 522.432C722.651 488.858 718.011 442.781 737.075 412.045C742.763 402.874 754.316 398.83 764.318 397.036Z" fill="#FC88D1"/>
<path d="M1173.48 414.381C1177.04 414.051 1180.41 414.162 1183.93 414.39C1246.32 418.423 1269.33 487.342 1263.8 540.513C1261.22 565.38 1253.59 588.669 1237.31 607.988C1224.67 622.984 1205.44 633.098 1185.92 634.584C1167.06 636.855 1147.21 630.737 1132.25 619.072C1074.7 574.192 1079.09 453.555 1147.98 420.967C1155.98 417.18 1164.79 415.491 1173.48 414.381ZM1136.01 523.056C1150.74 527.552 1161.68 529.485 1169.92 543.93C1175.5 553.721 1175.1 566.49 1179.18 574.765C1188.16 556.379 1182.46 534.715 1208.25 527.265C1212.82 525.945 1218.09 524.633 1222.58 523.188C1206.31 517.704 1197.71 519.731 1187.84 502.241C1183 493.653 1182.26 476.08 1178.32 472.886L1178 473.856C1172.6 490.37 1173.8 507.036 1156.03 515.867C1148.93 519.397 1142.89 520.224 1136.01 523.056Z" fill="#FC88D1"/>
<path d="M372.501 437.619C389.61 435.767 413.148 444.614 430.894 445.576C452.918 446.77 482.816 434.804 500.1 452.721C515.619 468.808 511.272 510.148 490.866 521.447C478.215 529.182 469.642 515.644 458.072 514.199C451.866 513.424 449.188 523.976 448.523 528.382C446.633 541.048 446.426 554.239 447.979 566.953C450.588 588.305 466.414 576.888 477.819 575.222C511.341 570.324 512.043 625.015 496.79 642.933C488.967 652.123 482.459 655.4 470.415 656.959C453.536 657.91 435.614 647.946 418.516 645.994C398.634 643.725 374.646 654.707 355.88 647.271C330.07 637.043 329.169 593.881 347.126 576.067C360.907 562.395 371.52 573.464 386.681 575.288C399.205 576.137 401.252 517.516 391.654 511.091C385.75 507.692 371.989 518.015 363.434 518.999C346.905 521.43 337.792 506.994 336.404 492.264C333.955 466.284 344.071 440.717 372.501 437.619Z" fill="#FC88D1"/>
<path d="M449.571 349.164C477.809 347.181 467.64 363.52 470.445 380.739L471.73 381.137C480.966 379.696 483.18 360.397 488.709 356.291C506.27 343.245 520.932 370.455 517.497 385.73C514.446 399.297 511.425 406.505 501.026 414.309C483.703 425.013 481.225 417.17 460.328 437C451.59 417.674 436.123 412.207 428.76 394.959C420.487 375.58 431.798 356.558 449.571 349.164Z" fill="#00CFFC"/>
<path d="M107.629 465.199C115.451 469.032 120.399 486.314 129.085 493.652C140.845 503.587 153.616 499.24 168.363 498.36C161.965 505.112 150.702 509.541 143.362 519.046C133.784 531.449 146.895 559.838 143.735 565.366L141.978 565.074C134.077 554.829 129.025 540.913 119.762 532.882C110.002 524.419 90.806 528.147 78.1743 529.479C85.3933 525.29 95.405 520.36 101.567 515.313C119.388 500.718 106.182 480.755 107.55 466.001L107.629 465.199Z" fill="#00CFFC"/>
<path d="M1431.94 580C1434.13 582.754 1433.72 583.843 1433.25 587.328C1431.58 599.79 1425.8 612.996 1435.35 623.807C1439.31 628.282 1451.61 633.983 1453.32 638.934C1448.81 640.701 1430.79 636.164 1422.24 640.654C1407.14 648.578 1402.91 662.801 1393.4 674.517C1388.98 667.448 1399.76 649.158 1396.63 635.347C1393 619.371 1378.38 617.77 1374 609.851L1374.36 608.92C1410.6 615.225 1412.44 609.682 1431.94 580Z" fill="#00CFFC"/>
<path d="M946.396 430C949.858 433.948 946.494 448.987 951.067 456.566C955.75 464.326 965.738 463.443 969.463 468.51C968.09 469.944 955.466 471.598 952.052 472.992C942.16 477.03 939.917 490.602 935.194 500.306L934.054 500.539L932.795 499.039C932.401 491.419 933.638 483.965 930.444 476.681C926.09 466.751 914.381 463.084 905 459.476C934.172 462.08 936.19 452.872 946.396 430Z" fill="#00CFFC"/>
</g>
<defs>
<clipPath id="clip0_94_2">
<rect width="1536" height="1024" fill="white"/>
</clipPath>
</defs>
</svg>
